<?xml version="1.0" standalone="no"?>
<!DOCTYPE svg PUBLIC "-//W3C//DTD SVG 20010904//EN"
 "http://www.w3.org/TR/2001/REC-SVG-20010904/DTD/svg10.dtd">
<svg version="1.0" xmlns="http://www.w3.org/2000/svg"
 width="200.000000pt" height="200.000000pt" viewBox="0 0 200.000000 200.000000"
 preserveAspectRatio="xMidYMid meet">
<metadata>
Created by potrace 1.14, written by Peter Selinger 2001-2017
</metadata>
<g transform="translate(0.000000,200.000000) scale(0.100000,-0.100000)"
fill="#000000" stroke="none">
<path d="M875 1993 c-345 -46 -645 -269 -787 -583 -97 -212 -112 -501 -38
-720 111 -334 382 -583 725 -665 101 -25 317 -27 421 -6 409 86 717 406 789
819 16 88 13 281 -4 357 -34 147 -74 242 -150 357 -187 283 -489 444 -831 445
-52 0 -108 -1 -125 -4z m15 -411 c47 -38 29 -173 -36 -272 -76 -115 -228 -111
-288 7 -31 62 -14 151 38 196 81 72 236 109 286 69z m427 -33 c38 -32 -27
-219 -98 -284 -62 -56 -119 -59 -184 -10 -75 58 -87 164 -27 232 54 63 258
103 309 62z m256 -278 c14 -91 -15 -209 -62 -260 -34 -36 -96 -56 -148 -46
-49 9 -119 79 -128 128 -16 84 90 183 235 220 71 18 96 8 103 -42z m-833 -126
c43 -11 90 -14 172 -10 129 5 178 -9 216 -62 26 -36 42 -105 36 -153 -8 -73
-4 -157 11 -210 37 -137 7 -229 -100 -299 -58 -37 -166 -37 -247 1 -134 63
-253 166 -338 296 -84 125 -104 235 -61 321 25 49 74 98 116 116 41 18 125 18
195 0z m867 -241 c41 -56 -4 -225 -79 -297 -73 -71 -189 -61 -241 20 -66 101
-32 202 89 263 99 49 201 55 231 14z"/>
</g>
</svg>
