<?xml version="1.0" encoding="utf-8"?><svg xmlns="http://www.w3.org/2000/svg" xmlns:xlink="http://www.w3.org/1999/xlink"><symbol viewBox="0 0 160 118.194" id="arrow" xmlns="http://www.w3.org/2000/svg"><path data-name="Path 130" class="acls-1" d="M160 91.215L101.727 70.06l-8.344 14.056c-15.062-.071-29.071-1.633-40.8-4.544-12.775-3.159-22.48-7.812-28.32-13.454-5.489-5.289-7.509-11.253-6.1-17.394 1.269-5.679 5.529-11.464 12.072-16.864 6.06-5.005 14.1-9.691 23.494-13.809A194.689 194.689 0 0183.15 8.15a257.047 257.047 0 0131.706-5.964A269.426 269.426 0 01130.797.624c5.27-.355 10.539-.568 15.765-.6-5.137-.074-10.407.036-15.764.317s-10.8.71-16.248 1.278a282.465 282.465 0 00-33.2 5.608 234.748 234.748 0 00-32.5 9.939c-5.27 2.094-10.32 4.331-14.975 6.745A116.094 116.094 0 0020.53 31.86a72.453 72.453 0 00-10.847 9.126 39.054 39.054 0 00-7.246 10.152c-3.557 7.384-3.293 14.838 1.274 21.76C8.673 80.388 18.55 86.991 33.05 91.89a154.367 154.367 0 0025.646 6 228.241 228.241 0 0025.154 2.306l-10.759 18z"/></symbol><symbol fill="none" viewBox="0 0 40 42" id="check" xmlns="http://www.w3.org/2000/svg"><path d="M2 32.5l9 7 27-38" stroke="#000" stroke-width="4" stroke-linejoin="round"/></symbol><symbol fill="none" viewBox="0 0 218 217" id="d" xmlns="http://www.w3.org/2000/svg"><circle cx="115.354" cy="113.615" r="80" transform="rotate(70 115.354 113.615)" fill="#FFDC2E"/><path d="M75.18 32.461C33.657 47.574 12.25 93.481 27.362 135c15.111 41.518 61.019 62.925 102.541 47.812s62.925-61.019 47.814-102.537C162.605 38.757 116.698 17.35 75.18 32.46zm60.898 106.217l4.735 13.009-13.204 4.806-3.196-8.781a43.443 43.443 0 01-5.539 2.463l-3.728 1.357 3.052 8.386-13.204 4.806-3.052-8.386-.083.03c-6.997 2.547-14.73-1.063-17.277-8.06l-25.205-69.25 12.748-4.64-3.225-8.86 13.205-4.806 3.224 8.86 3.729-1.358a43.436 43.436 0 015.825-1.673l-3.368-9.254 13.204-4.806 4.914 13.5c15.558 2.133 29.312 12.803 35.099 28.702 5.787 15.9 1.905 32.355-8.654 43.955z" stroke="#000" stroke-width="4"/><path d="M103.429 86.981c-3.905.375-11.63 3.26-17.295 5.386l15.402 42.317c5.187-1.888 14.166-5.137 17.268-7.578 5.907-4.638 11.291-13.602 6.962-25.495-4.329-11.894-15.031-15.328-22.337-14.63v0z" stroke="#000" stroke-width="4"/><path d="M174.201 62.376l-6.75 18.317a2.808 2.808 0 01-2.636 1.834 2.813 2.813 0 01-2.637-1.834l-6.75-18.317a2.845 2.845 0 00-1.687-1.687l-18.317-6.75a2.814 2.814 0 010-5.274l18.317-6.75a2.858 2.858 0 001.687-1.687l6.75-18.317a2.816 2.816 0 012.637-1.833 2.815 2.815 0 012.636 1.834l6.75 18.316a2.86 2.86 0 001.688 1.687l18.316 6.75a2.811 2.811 0 010 5.274l-18.316 6.75a2.841 2.841 0 00-1.688 1.687z" fill="#fff" stroke="#000" stroke-width="4" stroke-linecap="round" stroke-linejoin="round"/><path d="M187.315 6.3v16.876M195.752 14.743h-16.875M204.19 25.988v11.25M209.815 31.617h-11.25" stroke="#000" stroke-width="4" stroke-linecap="round" stroke-linejoin="round"/></symbol><symbol fill="none" viewBox="0 0 829 530" id="decor-1" xmlns="http://www.w3.org/2000/svg"><path d="M-167 170.4s82.28 160.79 327.19-106.83C405.1-204.06 187.8 504.36 79.53 463.19-28.74 422.02 190.12 154.94 477.39 240.9c287.27 85.96 342.71 388.24 349.03 522.48" stroke="#000" stroke-width="5" stroke-miterlimit="10"/></symbol><symbol fill="none" viewBox="0 0 999 416" id="decor-2" xmlns="http://www.w3.org/2000/svg"><path d="M3 170.819s82.28 160.79 327.19-106.83c244.91-267.63 27.61 440.79-80.66 399.62-108.27-41.17 110.59-308.25 397.86-222.29 287.27 85.96 342.71 388.24 349.03 522.48" stroke="#FFDC2E" stroke-width="5" stroke-miterlimit="10"/></symbol><symbol fill="none" viewBox="0 0 352 383" id="decor-3" xmlns="http://www.w3.org/2000/svg"><path d="M226.535 59.5l1.955-.42-1.955.42zM46.79-116l-.334 1.972h.003a.116.116 0 00.016.003l.073.013.302.055c.27.05.675.127 1.208.235 1.066.215 2.643.552 4.667 1.036 4.047.966 9.88 2.516 16.986 4.844 14.217 4.659 33.508 12.427 53.797 24.86C164.063-58.13 208.575-14.67 224.579 59.92l3.911-.84c-16.288-75.91-61.649-120.2-102.892-145.473-20.612-12.63-40.201-20.518-54.641-25.25-7.222-2.366-13.161-3.945-17.304-4.934a140.323 140.323 0 00-4.803-1.066 83.718 83.718 0 00-1.271-.247l-.333-.061a2.577 2.577 0 01-.087-.015l-.024-.004-.007-.001c-.002-.001-.004-.001-.338 1.971zM224.58 59.92c23.277 108.48-11.701 195.667-61.03 251.213-24.679 27.788-52.918 47.619-79.199 58.241-26.355 10.652-50.39 11.916-66.96 3.196l-1.862 3.54c18.071 9.51 43.473 7.823 70.321-3.027 26.922-10.881 55.655-31.104 80.691-59.294 50.098-56.411 85.517-144.874 61.95-254.709l-3.911.84zM17.391 372.57c-8.235-4.334-12.316-10.046-13.202-16.358-.9-6.407 1.425-13.89 6.996-21.804 11.144-15.832 34.72-32.55 67.291-44.063 65.023-22.983 165.149-24.937 270.699 41.646l2.134-3.383c-106.61-67.252-208.016-65.416-274.166-42.035-33.014 11.67-57.434 28.777-69.23 45.532-5.898 8.38-8.778 16.882-7.686 24.663 1.107 7.878 6.216 14.561 15.301 19.342l1.863-3.54z" fill="#FFDC2E"/></symbol><symbol fill="none" viewBox="0 0 426 609" id="decor-4" xmlns="http://www.w3.org/2000/svg"><path d="M2-83S163.5 35 68 296.5s21.5 352.5 96 292 25-270-20-237.5 124 161 279.5-39" stroke="#000" stroke-width="4" stroke-miterlimit="10"/></symbol><symbol viewBox="0 0 132 110" id="forbes" xmlns="http://www.w3.org/2000/svg"><path fill-rule="evenodd" clip-rule="evenodd" d="M56.938 67.162c4.914 0 7.54-2.314 7.54-5.85 0-2.288-1.456-3.77-3.614-4.212 1.976-.598 3.146-1.924 3.146-4.004 0-1.56-.676-2.808-1.846-3.718C60.942 48.52 59.2 48 57.016 48c-2.314 0-4.082.65-5.304 1.716-1.222 1.118-1.898 2.626-2.002 4.472h4.706c.208-1.534 1.014-2.366 2.47-2.366 1.43 0 2.132.728 2.132 1.846 0 1.326-.806 2.054-2.47 2.054H55.17v3.302h1.482c1.638 0 2.444.728 2.444 2.184 0 1.326-.78 2.106-2.444 2.106-1.872 0-2.548-1.014-2.73-2.574H49.19c.13 4.03 2.574 6.422 7.748 6.422zm18.13-4.134c-2.289 0-3.303-1.638-3.303-5.096v-.78c0-3.458.988-5.122 3.25-5.122 2.288 0 3.25 1.69 3.25 5.122v.754c0 3.458-.91 5.122-3.198 5.122zm-.157 4.134c2.626 0 4.81-.884 6.344-2.47 1.482-1.586 2.34-3.952 2.34-6.89v-.728c0-3.016-.91-5.278-2.444-6.812C79.591 48.78 77.433 48 75.015 48c-2.47 0-4.602.832-6.136 2.392-1.534 1.56-2.444 3.848-2.444 6.786v.78c0 2.912.832 5.226 2.288 6.786 1.456 1.586 3.588 2.418 6.188 2.418zm-17.973 42c4.914 0 7.54-2.314 7.54-5.85 0-2.288-1.456-3.77-3.614-4.212 1.976-.598 3.146-1.924 3.146-4.004 0-1.56-.676-2.808-1.846-3.718C60.942 90.52 59.2 90 57.016 90c-2.314 0-4.082.65-5.304 1.716-1.222 1.118-1.898 2.626-2.002 4.472h4.706c.208-1.534 1.014-2.366 2.47-2.366 1.43 0 2.132.728 2.132 1.846 0 1.326-.806 2.054-2.47 2.054H55.17v3.302h1.482c1.638 0 2.444.728 2.444 2.184 0 1.326-.78 2.106-2.444 2.106-1.872 0-2.548-1.014-2.73-2.574H49.19c.13 4.03 2.574 6.422 7.748 6.422zm18.13-4.134c-2.289 0-3.303-1.638-3.303-5.096v-.78c0-3.458.988-5.122 3.25-5.122 2.288 0 3.25 1.69 3.25 5.122v.754c0 3.458-.91 5.122-3.198 5.122zm-.157 4.134c2.626 0 4.81-.884 6.344-2.47 1.482-1.586 2.34-3.952 2.34-6.89v-.728c0-3.016-.91-5.278-2.444-6.812C79.591 90.78 77.433 90 75.015 90c-2.47 0-4.602.832-6.136 2.392-1.534 1.56-2.444 3.848-2.444 6.786v.78c0 2.912.832 5.226 2.288 6.786 1.456 1.586 3.588 2.418 6.188 2.418zM47.29 79.43c0 2.352-1.284 3.552-3.624 3.552-2.268 0-3.54-1.188-3.54-3.48V74.27h1.956v5.112c0 1.44.408 2.052 1.596 2.052 1.152 0 1.656-.552 1.656-2.124v-5.04h1.956v5.16zm4.92 3.42v-8.58h2.256l3.264 5.652V74.27h1.728v8.58h-1.944l-3.576-6.108v6.108h-1.728zm14.178-1.512h.792c1.74 0 2.544-.96 2.544-2.748v-.096c0-1.764-.756-2.712-2.568-2.712h-.768v5.556zm-1.944 1.512v-8.58h2.808c1.5 0 2.628.408 3.384 1.128.732.732 1.116 1.788 1.116 3.072v.096c0 1.284-.372 2.352-1.128 3.108-.756.756-1.884 1.176-3.384 1.176h-2.796zm11.86 0v-8.58h5.591v1.512h-3.66v2.004h2.928v1.416h-2.928v2.136h3.853v1.512h-5.785zm10.288 0v-8.58h3.073c1.007 0 1.835.204 2.412.636.576.432.9 1.092.9 1.968v.048c0 .66-.18 1.14-.504 1.512-.325.372-.768.624-1.26.768l2.267 3.648h-2.064l-2.052-3.312h-.84v3.312h-1.931zm1.933-4.632h1.091c.973 0 1.465-.42 1.465-1.236v-.048c0-.876-.516-1.176-1.465-1.176h-1.091v2.46z"/><path d="M80.412 9.384c-2.124 0-3.792.455-5.46 1.362 0-4.844 0-9.233.151-10.746L64.939 1.816v.908L66 2.875c1.364.303 1.821 1.059 2.122 2.876.305 3.633.152 23.008 0 26.188 2.73.606 5.614 1.06 8.497 1.06 8.041 0 12.896-4.996 12.896-12.867 0-6.206-3.944-10.748-9.103-10.748zm-3.49 21.949c-.607 0-1.366 0-1.82-.15-.153-2.12-.303-11.051-.153-18.922.91-.303 1.517-.455 2.276-.455 3.34 0 5.161 3.936 5.161 8.778 0 6.057-2.277 10.749-5.464 10.749zM26.703.605H0v1.362l1.517.151c1.972.303 2.731 1.513 3.034 4.39.456 5.449.304 15.289 0 19.98-.303 2.876-1.061 4.24-3.034 4.389L0 31.18v1.21h17.144v-1.21l-1.82-.304c-1.973-.15-2.731-1.513-3.034-4.39-.153-1.968-.304-5.147-.304-9.082l3.64.151c2.277 0 3.338 1.817 3.794 4.39h1.365V11.2H19.42c-.457 2.574-1.517 4.39-3.793 4.39l-3.64.152c0-5.147.151-9.991.303-12.867h5.31c4.098 0 6.221 2.573 7.738 7.115l1.517-.455-.152-8.931z"/><path d="M35.351 9.082c7.587 0 11.38 5.146 11.38 11.958 0 6.509-4.249 11.96-11.835 11.96-7.586 0-11.379-5.148-11.379-11.96 0-6.509 4.248-11.958 11.834-11.958zm-.455 1.514c-3.338 0-4.249 4.54-4.249 10.444 0 5.752 1.518 10.444 4.553 10.444 3.487 0 4.399-4.541 4.399-10.444 0-5.752-1.516-10.444-4.703-10.444zm56.59 10.596c0-6.207 3.945-12.11 11.683-12.11 6.37 0 9.406 4.693 9.406 10.898h-14.11c-.153 5.601 2.578 9.689 8.041 9.689 2.428 0 3.641-.604 5.16-1.665l.605.756c-1.517 2.12-4.855 4.24-9.102 4.24-6.828 0-11.682-4.845-11.682-11.808zm6.979-2.876l7.131-.152c0-3.027-.456-7.568-3.034-7.568-2.579 0-3.946 4.237-4.097 7.72zm32.167-8.023c-1.82-.758-4.247-1.211-6.978-1.211-5.613 0-9.104 3.33-9.104 7.265 0 3.937 2.577 5.601 6.222 6.813 3.792 1.36 4.855 2.421 4.855 4.238 0 1.816-1.366 3.48-3.794 3.48-2.881 0-5.007-1.664-6.675-6.206l-1.063.304.153 6.66c1.82.756 5.158 1.363 8.041 1.363 5.917 0 9.711-3.029 9.711-7.72 0-3.18-1.67-4.995-5.614-6.51-4.25-1.664-5.765-2.724-5.765-4.693 0-1.967 1.367-3.33 3.188-3.33 2.729 0 4.55 1.665 5.917 5.753l1.061-.303-.155-5.903zm-64.179-.606c-2.578-1.512-7.13-.757-9.557 4.694l.15-5.299-10.164 1.968v.908l1.062.152c1.367.152 1.972.908 2.125 2.876.303 3.633.151 9.992 0 13.17-.153 1.815-.758 2.723-2.125 2.875l-1.062.152v1.211h14.11v-1.21l-1.821-.153c-1.517-.152-1.972-1.06-2.125-2.875-.303-2.877-.303-8.628-.15-12.261.758-1.06 4.096-1.968 7.13 0l2.427-6.208z"/></symbol><symbol fill="none" viewBox="0 0 1484 303" id="logo" xmlns="http://www.w3.org/2000/svg"><path d="M1074.33 189.204c8.2.215 14.19.607 18.65 5.326 14.29 15.124-16.7 38.943-49.91 38.943a75.248 75.248 0 01-35.48-8.826 75.281 75.281 0 01-27.141-24.511 75.359 75.359 0 01-7.129-70.612 75.32 75.32 0 0121.691-29.446 75.24 75.24 0 0169.519-14.083 75.256 75.256 0 0131.43 18.685l48.86-48.597a143.629 143.629 0 00-46.69-31.186A143.516 143.516 0 001043.07 14C963.479 14 899 78.505 899 158.153s64.473 144.146 144.07 144.146c79.59 0 135.58-62.507 123.24-115.817-6.94-29.968-26.48-31.874-49.91-26.652-22.34 4.955-44.94 29.295-42.07 29.374zM1339.06 14C1259.47 14 1195 78.504 1195 158.152c0 79.649 64.47 144.146 144.06 144.146s144.07-64.504 144.07-144.146C1483.13 78.511 1418.66 14 1339.06 14zm2.31 72.592c9.33-9.471 38.12-12.97 43.63-7.54 5.51 5.431-3.08 29.583-12.4 39.061-9.31 9.478-18.78 12.983-30.79 1.136-9.48-9.341-9.78-23.186-.44-32.657zm-60.48-1.501c9.33-9.478 35.29-18.486 43.41-10.444 8.12 8.041-.52 34.106-9.85 43.577-9.34 9.471-23.85 10.3-33.32.96a24.11 24.11 0 01-7.18-16.997 24.12 24.12 0 016.94-17.096zm76.64 152.148c-27.75 28.16-68.69-9.85-75.98-17.03-7.28-7.18-45.82-47.618-18.08-75.771 17.82-18.087 37.93-5.404 48.87-5.052 11.65.379 16.03-2.095 24.65-1.416 8.63.678 14.12 2.774 18.56 7.18 4.44 4.406 6.61 9.791 7.41 18.466.8 8.675-1.61 13.055-1.07 24.687.51 10.894 13.46 30.836-4.36 48.936zm23.38-111.012c9.33-9.472 33.35-18.401 38.85-12.97 5.51 5.43 2.42 34.288-6.91 43.734-9.34 9.445-23.18 9.367-32.62 0-12.04-11.789-8.66-21.313.68-30.784v.02zm35.19 88.12c-9.34 9.472-23.85 10.301-33.32.96a24.145 24.145 0 01-7.17-16.983 24.132 24.132 0 016.93-17.084c9.34-9.471 35.29-18.486 43.41-10.444 8.12 8.042-.52 34.074-9.85 43.545v.006z" fill="#FFDC2E"/><path d="M4 4h104.377c80.338 0 143.01 65.229 143.01 145.23 0 77.846-62.672 143.068-142.99 143.068h-59.84a44.526 44.526 0 01-31.509-13.056A44.58 44.58 0 014 247.716V4zm180.703 145.177c0-43.564-29.356-64.622-52.841-70.718-12.538-3.264-39.794-3.035-59.801-2.827V224.55c18.266 0 49.801.059 62.195-4.008 23.59-7.742 50.447-29.498 50.447-71.365zM566.134 148.152c0 79.636-64.473 144.146-144.067 144.146-79.594 0-144.067-64.504-144.067-144.146C278 68.511 342.473 4 422.067 4c79.594 0 144.067 64.504 144.067 144.152zm-68.792 0c0-41.442-33.857-75.32-75.275-75.32a75.244 75.244 0 00-41.821 12.694 75.316 75.316 0 00-27.725 33.803 75.36 75.36 0 0016.318 82.083 75.238 75.238 0 0082.035 16.327 75.276 75.276 0 0033.782-27.741 75.347 75.347 0 0012.686-41.846v0zM768.328 179.204c8.207.215 14.189.607 18.651 5.326 14.293 15.124-16.701 38.943-49.912 38.943a75.244 75.244 0 01-35.479-8.826 75.291 75.291 0 01-27.139-24.511 75.37 75.37 0 01-7.129-70.612 75.318 75.318 0 0121.691-29.446 75.232 75.232 0 0169.519-14.083 75.265 75.265 0 0131.43 18.685l48.855-48.597a143.6 143.6 0 00-46.683-31.186A143.533 143.533 0 00737.067 4C657.479 4 593 68.504 593 148.153c0 79.648 64.473 144.146 144.067 144.146 79.594 0 135.579-62.507 123.243-115.817-6.941-29.968-26.479-31.874-49.905-26.652-22.35 4.955-44.941 29.295-42.077 29.374zM1064.33 179.204c8.2.215 14.19.607 18.65 5.326 14.29 15.124-16.7 38.943-49.91 38.943a75.262 75.262 0 01-62.621-33.337 75.359 75.359 0 01-7.129-70.612 75.318 75.318 0 0121.691-29.446 75.238 75.238 0 0169.519-14.083 75.259 75.259 0 0131.43 18.685l48.86-48.597a143.629 143.629 0 00-46.69-31.186A143.516 143.516 0 001033.07 4C953.479 4 889 68.504 889 148.153c0 79.648 64.473 144.146 144.07 144.146 79.59 0 135.58-62.507 123.24-115.817-6.94-29.968-26.48-31.874-49.91-26.652-22.34 4.955-44.94 29.295-42.07 29.374zM1329.06 4C1249.47 4 1185 68.504 1185 148.152c0 79.649 64.47 144.146 144.06 144.146s144.07-64.504 144.07-144.146C1473.13 68.511 1408.66 4 1329.06 4zm2.31 72.592c9.33-9.471 38.12-12.97 43.63-7.54 5.51 5.431-3.08 29.583-12.4 39.061-9.31 9.478-18.78 12.983-30.79 1.136-9.48-9.341-9.78-23.186-.44-32.657zm-60.48-1.501c9.33-9.478 35.29-18.486 43.41-10.444 8.12 8.041-.52 34.106-9.85 43.577-9.34 9.471-23.85 10.3-33.32.96a24.11 24.11 0 01-7.18-16.997 24.12 24.12 0 016.94-17.097v0zm76.64 152.148c-27.75 28.16-68.69-9.85-75.98-17.03-7.28-7.18-45.82-47.618-18.08-75.771 17.82-18.087 37.93-5.404 48.87-5.052 11.65.379 16.03-2.095 24.65-1.416 8.63.678 14.12 2.774 18.56 7.18 4.44 4.406 6.61 9.791 7.41 18.466.8 8.675-1.61 13.055-1.07 24.687.51 10.894 13.46 30.836-4.36 48.936zm23.38-111.012c9.33-9.472 33.35-18.401 38.85-12.97 5.51 5.43 2.42 34.288-6.91 43.734-9.34 9.445-23.18 9.367-32.62 0-12.04-11.789-8.66-21.313.68-30.784v.02zm35.19 88.12c-9.34 9.472-23.85 10.301-33.32.96a24.145 24.145 0 01-7.17-16.983 24.132 24.132 0 016.93-17.084c9.34-9.471 35.29-18.486 43.41-10.444 8.12 8.042-.52 34.074-9.85 43.545v.006z" stroke="#000" stroke-width="8"/></symbol></svg>